
<svg width="100%" height="220" viewBox="0 0 1200 220" xmlns="http://www.w3.org/2000/svg">
<rect x="0" y="0" width="1200" height="220" fill="#0d1117"/>
<circle cx="80" cy="40" r="1.5" fill="#ffffff" opacity="0.8"/>
<circle cx="180" cy="80" r="1" fill="#ffffff" opacity="0.6"/>
<circle cx="300" cy="30" r="1.5" fill="#ffffff" opacity="0.7"/>
<circle cx="420" cy="60" r="1" fill="#ffffff" opacity="0.5"/>
<circle cx="540" cy="120" r="1.5" fill="#ffffff" opacity="0.8"/>
<circle cx="640" cy="170" r="1" fill="#ffffff" opacity="0.6"/>
<circle cx="760" cy="50" r="1.5" fill="#ffffff" opacity="0.7"/>
<circle cx="860" cy="150" r="1" fill="#ffffff" opacity="0.6"/>
<circle cx="960" cy="90" r="1.5" fill="#ffffff" opacity="0.7"/>
<circle cx="1060" cy="40" r="1" fill="#ffffff" opacity="0.6"/>
<circle cx="1140" cy="130" r="1.5" fill="#ffffff" opacity="0.7"/>
<circle cx="150" cy="180" r="1" fill="#ffffff" opacity="0.5"/>
<circle cx="700" cy="20" r="1" fill="#ffffff" opacity="0.6"/>
<circle cx="1000" cy="190" r="1" fill="#ffffff" opacity="0.5"/>

<text x="600" y="115" text-anchor="middle" font-family="monospace" font-size="30" fill="#36BCF7" font-weight="bold">Hi, I'm Shuvo</text>
<text x="600" y="150" text-anchor="middle" font-family="monospace" font-size="16" fill="#8b949e">Full-Stack Developer building civic tech for Bangladesh</text>

<g>
<animateMotion dur="4s" repeatCount="indefinite" path="M -120 220 L 1320 -100" rotate="-35"/>
<g>
<path d="M0 -30 Q14 -18 14 6 L14 30 L-14 30 L-14 6 Q-14 -18 0 -30 Z" fill="#e6e8eb"/>
<path d="M-14 6 L-26 26 L-14 26 Z" fill="#36BCF7"/>
<path d="M14 6 L26 26 L14 26 Z" fill="#36BCF7"/>
<circle cx="0" cy="0" r="7" fill="#1e70b0"/>
<circle cx="0" cy="0" r="3.5" fill="#bfe6ff"/>
<g>
<animate attributeName="opacity" values="1;0.6;1" dur="0.15s" repeatCount="indefinite"/>
<path d="M-9 30 Q0 55 0 70 Q0 55 9 30 Z" fill="#f0a500"/>
<path d="M-5 30 Q0 48 0 58 Q0 48 5 30 Z" fill="#ff6a3d"/>
</g>
</g>
</g>
</svg>
